<svg xmlns="http://www.w3.org/2000/svg" data-name="Layer 1" viewBox="0 0 100 100" x="0px" y="0px"><path d="m60.963,54.968c-.231-.551-.771-.91-1.369-.91h-19.107c-.598,0-1.137.358-1.369.91l-16.566,39.457c-.192.458-.143.982.132,1.396.275.414.739.663,1.236.663h52.239c.497,0,.961-.249,1.236-.663.275-.414.325-.938.132-1.396l-16.565-39.457Zm-34.809,38.547l15.32-36.488h17.134l15.319,36.488H26.154Zm-3.88-40.368c2.33,0,4.416-1.065,5.798-2.733h43.857c1.382,1.668,3.467,2.733,5.797,2.733,4.15,0,7.527-3.377,7.527-7.527,0-3.642-2.601-6.687-6.043-7.378V5c0-.82-.665-1.484-1.484-1.484H22.274c-.82,0-1.484.665-1.484,1.484v33.242c-3.442.691-6.042,3.736-6.042,7.378,0,4.15,3.376,7.527,7.527,7.527Zm60.011-7.527c0,2.514-2.045,4.559-4.559,4.559s-4.558-2.045-4.558-4.559,2.044-4.558,4.558-4.558,4.559,2.045,4.559,4.558Zm-6.043-39.136v31.758c-3.441.691-6.042,3.736-6.042,7.378,0,.631.086,1.24.233,1.826H29.568c.147-.586.233-1.195.233-1.826,0-3.642-2.601-6.687-6.043-7.378V6.484h52.483ZM22.274,41.062c2.514,0,4.559,2.045,4.559,4.558s-2.045,4.559-4.559,4.559-4.558-2.045-4.558-4.559,2.045-4.558,4.558-4.558Zm-.851,50.247c-.82,0-1.484-.665-1.484-1.484v-8.606c0-1.659-1.354-3.008-3.018-3.008h-7.418c-1.664,0-3.018,1.35-3.018,3.008v8.606c0,.82-.665,1.484-1.484,1.484s-1.484-.665-1.484-1.484v-8.606c0-3.296,2.686-5.977,5.987-5.977h7.418c3.301,0,5.986,2.681,5.986,5.977v8.606c0,.82-.665,1.484-1.484,1.484Zm-8.211-16.736c4.15,0,7.526-3.377,7.526-7.527,0-3.338-2.187-6.173-5.202-7.155.002-.033.01-.064.01-.098,0-1.659,1.354-3.008,3.019-3.008h7.418c1.665,0,3.019,1.35,3.019,3.008v8.606c0,.82.665,1.484,1.484,1.484s1.484-.665,1.484-1.484v-8.606c0-3.296-2.686-5.977-5.987-5.977h-7.418c-3.219,0-5.846,2.552-5.975,5.735-3.86.318-6.905,3.555-6.905,7.495,0,4.15,3.377,7.527,7.527,7.527Zm0-12.085c2.513,0,4.558,2.044,4.558,4.558s-2.044,4.559-4.558,4.559-4.559-2.045-4.559-4.559,2.045-4.558,4.559-4.558Zm60.805-8.672c-3.301,0-5.987,2.681-5.987,5.977v8.606c0,.82.665,1.484,1.484,1.484s1.484-.665,1.484-1.484v-8.606c0-1.659,1.354-3.008,3.019-3.008h7.418c1.136,0,2.167.632,2.689,1.649.218.426.329.883.329,1.359,0,.033.008.065.01.098-3.015.982-5.202,3.816-5.202,7.155,0,4.15,3.376,7.527,7.526,7.527s7.527-3.377,7.527-7.527c0-3.941-3.047-7.178-6.908-7.495-.036-.857-.25-1.706-.642-2.472-1.033-2.012-3.076-3.262-5.33-3.262h-7.418Zm17.33,13.229c0,2.514-2.045,4.559-4.559,4.559s-4.558-2.045-4.558-4.559,2.044-4.558,4.558-4.558,4.559,2.044,4.559,4.558Zm5.138,14.173v8.606c0,.82-.665,1.484-1.484,1.484s-1.484-.665-1.484-1.484v-8.606c0-1.659-1.354-3.008-3.019-3.008h-7.418c-1.664,0-3.018,1.35-3.018,3.008v8.606c0,.82-.665,1.484-1.484,1.484s-1.484-.665-1.484-1.484v-8.606c0-3.296,2.686-5.977,5.986-5.977h7.418c3.301,0,5.987,2.681,5.987,5.977ZM40.442,26.965c0-.82.665-1.484,1.484-1.484h28.122c.82,0,1.484.665,1.484,1.484s-.665,1.484-1.484,1.484h-28.122c-.82,0-1.484-.665-1.484-1.484Zm-10.966,1.05c-.58-.579-.581-1.519-.001-2.099.579-.581,1.519-.581,2.099-.001l1.019,1.018,3.086-3.083c.58-.58,1.52-.579,2.099.001.579.58.579,1.52-.001,2.099l-4.135,4.13c-.29.29-.669.434-1.049.434-.046,0-.092-.002-.138-.006h-.002s-.002,0-.002,0h-.002s0,0,0,0h-.003s0,0-.002,0h-.003s0,0-.001,0h-.002s-.001,0-.002,0h-.002s-.001,0-.002,0h-.002s-.001,0-.002,0h-.002s-.001,0-.002,0h-.002s-.001,0-.002,0h-.002s-.001,0-.002,0c-.002,0-.004,0-.007,0h-.002s-.001,0-.002,0h-.002c-.009-.001-.018-.002-.026-.004-.044-.007-.088-.015-.131-.026-.001,0-.003,0-.004,0,0,0-.001,0-.002,0,0,0,0,0-.002,0,0,0,0,0-.002,0h0s-.001,0-.002,0c0,0-.001,0-.002,0h0s0,0-.002,0c0,0-.001,0-.002,0h0s0,0-.002,0c0,0,0,0-.002,0,0,0,0,0,0,0,0,0-.002,0-.002,0,0,0-.001,0-.002,0h0s-.002,0-.002,0c0,0-.001,0-.002,0,0,0-.001,0-.002,0s0,0,0,0c-.001,0,0,0-.002,0,0,0,0,0-.001,0h0s-.001,0-.002,0c0,0,0,0-.001,0h-.002s-.001,0-.002-.001h0s0,0-.001,0h0s-.002,0-.002,0h-.002s0-.001-.002,0c0,0,0,0,0,0h0s-.001,0-.002,0,0,0-.002,0c0,0,0,0,0,0,0,0,0,0-.002,0,0,0-.002-.001-.002,0,0,0,0,0-.001,0,0,0-.001,0-.002,0,0,0-.001,0-.002,0h0s-.001,0-.002,0c0,0,0,0-.001,0h0s-.001,0-.002,0c0,0,0,0-.001,0h0s-.001-.001-.002,0c0,0,0,0-.002,0,0,0,0,0-.002,0,0,0,.001,0-.002,0,0,0-.001,0-.002,0h0s-.002,0-.002,0c0,0,0,0-.002,0,0,0,0,0-.002,0h0s-.002,0-.002,0c0,0-.001,0-.002,0,0,0,0,0-.002,0h0s-.001,0-.002,0c0,0-.001,0-.002,0h0s-.002,0-.004-.001c0,0-.001,0-.002,0,0,0,0,0-.002,0-.211-.071-.409-.19-.577-.358,0,0,0,0-.002-.001l-2.064-2.062Zm10.966,9.181c0-.82.665-1.484,1.484-1.484h28.122c.82,0,1.484.665,1.484,1.484s-.665,1.484-1.484,1.484h-28.122c-.82,0-1.484-.665-1.484-1.484Zm-10.966,1.05c-.58-.58-.581-1.519-.001-2.099.579-.581,1.519-.581,2.099-.001l1.019,1.018,3.086-3.083c.58-.58,1.52-.579,2.099.001.579.58.579,1.52-.001,2.099l-4.135,4.13s-.001,0-.001.002c0,0,0,0-.001,0h0s0,.001,0,.001h0s0,.001-.001.002c0,0,0,0-.002.002h-.001s0,.002-.002.003h-.001s0,.001,0,.001c-.076.075-.159.139-.246.194h0s-.001,0-.002.001,0,0-.002.001c0,0-.001,0-.002,0s0,0-.002,0h0s0,0-.002.001c0,0,0,0-.002,0h0s0,0-.002.001-.002.001-.002.001c0,0-.001.001-.002,0,0,0,0,0-.002.001-.001,0-.001.001-.002,0,0,0,0,0-.002.001,0,0,0,0-.002,0,0,0,0,0-.002.001,0,0-.001,0-.002,0s0,0,0,0c0,0,0,0,0,0,0,0-.001.001-.002.001s0,0,0,0c0,0,0,0,0,0,0,0,0,0,0,0,0,0-.002,0-.002.001,0,0,0,0-.001,0h0s-.002.002-.002.001c0,0,0,0-.001,0,0,0,0,0-.002,0,0,0,0,0,0,0,0,0,0,0-.001,0h0s-.002,0-.002.001c0,0-.001,0-.002,0,0,0,0,0-.002,0,0,0-.001,0-.002,0,0,0,0,0-.002.001,0,0-.001,0-.002,0,0,0-.001,0-.002,0,0,0-.001,0-.002.001,0,0-.001,0-.002,0-.224.125-.474.188-.723.188-.051,0-.103-.002-.153-.008-.002,0-.004,0-.006,0h-.002s0,0-.002,0h-.002s-.001,0-.002,0h-.002s-.002,0-.002,0h-.002s-.001,0-.002,0h-.002s0,0,0,0h-.002s-.002,0-.002,0h-.002s0,0-.001,0h-.003s0,0-.001,0h-.002s-.001,0-.002,0c0,0,0,0-.002,0h-.003s0,0-.002,0h-.002s0,0-.002,0c-.09-.013-.179-.034-.265-.063,0,.001-.001,0-.004-.001-.002,0-.002,0-.002,0,0,0,0,0-.002,0,0,0-.001,0-.002,0,0,0-.001,0-.002,0,0,0-.001,0-.002,0,0,0-.001,0-.002,0,0,0,0,0-.002,0,0,0,0,0-.002,0,0,0-.001,0-.002,0h0s-.001,0-.002,0c0,0-.001,0-.002,0,0,0,0,0-.002,0h0s-.002-.001-.002,0c0,0-.001,0-.002,0h0s0,0-.001,0h0s-.001,0-.002,0c0,0,0,0-.001,0,0,0-.001,0-.002,0h0s-.001,0-.002,0c0,0,0,0-.001,0h0s0,0-.001,0c0,0,0,0-.002,0t-.002,0s0,0,0,0c0,0,0,0-.001,0,0,0,0,0,0,0,0,0,0,0-.002,0,0,0,0,0,0,0,0,0,0,0,0,0,0,0,0,0-.001,0,0,0,0,0,0,0,0,0,0,0-.002,0,0,0-.002,0-.002,0,0,0,0,0-.001,0,0,0,0,0,0,0,0,0,0,0,0,0,0,0,0,0-.002,0,0,0,0,0-.001,0h0s0,0-.001,0c0,0,0,0-.002,0,0,0-.002,0-.002,0,0,0,0,0,0,0,0,0,0,0-.001,0h0s-.001,0-.002-.001c0,0,0,0-.001,0,0,0,0,0-.002,0,0,0,0,0,0,0,0,0-.002,0-.002,0,0,0-.001,0-.002,0,0,0,0,0-.001,0h0s0,0-.001,0h0s-.002,0-.002,0c0,0-.001,0-.002,0,0,0,0,0-.002,0h-.002s-.001-.001-.002-.002c-.001,0,0,0-.002,0,0,0,0,0-.001,0,0,0,0,0-.002,0,0,0-.001,0-.002,0,0,0-.001,0-.002,0h0s0,0-.002,0c0,0,0,0-.002,0-.001,0-.003,0-.004-.001-.001,0-.003-.001-.004-.002-.158-.07-.306-.169-.437-.298h-.001s0-.002,0-.002h-.001s0-.002-.001-.003h0s0-.001,0-.001c0,0-.001,0-.002-.002l-2.068-2.065Zm10.966-21.512c0-.82.665-1.484,1.484-1.484h28.122c.82,0,1.484.665,1.484,1.484s-.665,1.484-1.484,1.484h-28.122c-.82,0-1.484-.665-1.484-1.484Zm-10.966,1.05c-.58-.579-.581-1.519-.001-2.099.579-.581,1.519-.581,2.099-.001l1.019,1.018,3.086-3.082c.58-.58,1.52-.579,2.099.001.579.58.579,1.52-.001,2.099l-4.135,4.129c-.29.29-.669.434-1.049.434-.054,0-.108-.003-.162-.009-.001,0-.001,0-.002,0h-.002s-.001,0-.002,0h-.002c-.248-.029-.489-.119-.699-.272h0s-.001,0-.002-.001,0,0-.002-.001c0,0-.002,0-.002-.001,0,0,0,0-.001,0h0s0,0-.001-.001h0s0,0-.002-.002c0,0,0,0-.002-.001,0,0,0,0-.002-.001,0,0,0,0-.002-.001,0,0-.001,0-.002-.001,0,0-.002,0-.002-.001,0,0,0,0-.001,0h0s0,0-.001-.001c0,0-.001,0-.004-.003-.049-.038-.097-.079-.143-.124,0,0-.002-.002-.002-.002h-.001s0-.002,0-.002c0-.001-.002,0-.002-.002,0,0,0,0,0,0l-2.068-2.065Z"/></svg>